<svg viewBox="-128,-128,256,256" xmlns="http://www.w3.org/2000/svg" fill="none" stroke-linecap="round" stroke-linejoin="round" stroke-width="32"><circle fill="#FFFFFF" r="128" cx="0" cy="0" stroke="none"></circle><g stroke-linecap="butt"><path stroke="#62B132" d="M -12,-112 C -146,-112 -146,112 -12,112"></path><path stroke="#5881D8" d="M 12,112 C 146,112 146,-112 12,-112"></path></g><g id="net"><g stroke-width="4" stroke="#E0E0E0"><g><line x1="-64" y1="-32" x2="0" y2="-64"></line><line x1="-64" y1="-32" x2="0" y2="-32"></line><line x1="-64" y1="-32" x2="0" y2="0"></line><line x1="-64" y1="-32" x2="0" y2="32"></line><line x1="-64" y1="-32" x2="0" y2="64"></line><line x1="-64" y1="0" x2="0" y2="-64"></line><line x1="-64" y1="0" x2="0" y2="-32"></line><line x1="-64" y1="0" x2="0" y2="0"></line><line x1="-64" y1="0" x2="0" y2="32"></line><line x1="-64" y1="0" x2="0" y2="64"></line><line x1="-64" y1="32" x2="0" y2="-64"></line><line x1="-64" y1="32" x2="0" y2="-32"></line><line x1="-64" y1="32" x2="0" y2="0"></line><line x1="-64" y1="32" x2="0" y2="32"></line><line x1="-64" y1="32" x2="0" y2="64"></line></g><g><line x1="0" y1="-64" x2="64" y2="-16"></line><line x1="0" y1="-64" x2="64" y2="16"></line><line x1="0" y1="-32" x2="64" y2="-16"></line><line x1="0" y1="-32" x2="64" y2="16"></line><line x1="0" y1="0" x2="64" y2="-16"></line><line x1="0" y1="0" x2="64" y2="16"></line><line x1="0" y1="32" x2="64" y2="-16"></line><line x1="0" y1="32" x2="64" y2="16"></line><line x1="0" y1="64" x2="64" y2="-16"></line><line x1="0" y1="64" x2="64" y2="16"></line></g></g><g fill="#FFCD52"><circle r="14" cx="-64" cy="-32"></circle><circle r="14" cx="-64" cy="0"></circle><circle r="14" cx="-64" cy="32"></circle></g><g fill="#A86F40"><circle r="14" cx="0" cy="-64"></circle><circle r="14" cx="0" cy="-32"></circle><circle r="14" cx="0" cy="0"></circle><circle r="14" cx="0" cy="32"></circle><circle r="14" cx="0" cy="64"></circle></g><g fill="#F26767"><circle r="14" cx="64" cy="-16"></circle><circle r="14" cx="64" cy="16"></circle></g></g></svg>
